<svg width="100" height="100" viewBox="0 0 100 100" fill="none" xmlns="http://www.w3.org/2000/svg">
<rect width="100" height="100" rx="10" fill="#7A7A7A"/>
<path d="M50 50C51.1 50 52.0417 49.6083 52.825 48.825C53.6083 48.0417 54 47.1 54 46C54 44.9 53.6083 43.9583 52.825 43.175C52.0417 42.3917 51.1 42 50 42C48.9 42 47.9583 42.3917 47.175 43.175C46.3917 43.9583 46 44.9 46 46C46 47.1 46.3917 48.0417 47.175 48.825C47.9583 49.6083 48.9 50 50 50ZM50 64.7C54.0667 60.9667 57.0833 57.575 59.05 54.525C61.0167 51.475 62 48.7667 62 46.4C62 42.7667 60.8417 39.7917 58.525 37.475C56.2083 35.1583 53.3667 34 50 34C46.6333 34 43.7917 35.1583 41.475 37.475C39.1583 39.7917 38 42.7667 38 46.4C38 48.7667 38.9833 51.475 40.95 54.525C42.9167 57.575 45.9333 60.9667 50 64.7ZM50 70C44.6333 65.4333 40.625 61.1917 37.975 57.275C35.325 53.3583 34 49.7333 34 46.4C34 41.4 35.6083 37.4167 38.825 34.45C42.0417 31.4833 45.7667 30 50 30C54.2333 30 57.9583 31.4833 61.175 34.45C64.3917 37.4167 66 41.4 66 46.4C66 49.7333 64.675 53.3583 62.025 57.275C59.375 61.1917 55.3667 65.4333 50 70Z" fill="white"/>
</svg>
