<svg width="100" height="100" viewBox="0 0 100 100" fill="none" xmlns="http://www.w3.org/2000/svg">
<rect width="100" height="100" rx="10" fill="#7A7A7A"/>
<path d="M47.5417 67.125V63.2083H63.2083V49.3042C63.2083 45.4854 61.8783 42.246 59.2182 39.5859C56.5582 36.9259 53.3187 35.5958 49.5 35.5958C45.6812 35.5958 42.4418 36.9259 39.7818 39.5859C37.1217 42.246 35.7917 45.4854 35.7917 49.3042V61.25H33.8333C32.7562 61.25 31.8342 60.8665 31.0672 60.0995C30.3002 59.3325 29.9167 58.4104 29.9167 57.3333V53.4167C29.9167 52.7313 30.088 52.0866 30.4307 51.4828C30.7734 50.879 31.2549 50.3976 31.875 50.0385L32.0219 47.4438C32.283 45.2243 32.9276 43.1681 33.9557 41.275C34.9839 39.3819 36.2731 37.7337 37.8234 36.3302C39.3738 34.9267 41.1526 33.8333 43.1599 33.05C45.1672 32.2667 47.2806 31.875 49.5 31.875C51.7194 31.875 53.8246 32.2667 55.8156 33.05C57.8066 33.8333 59.5854 34.9186 61.1521 36.3057C62.7187 37.6929 64.008 39.333 65.0198 41.226C66.0316 43.1191 66.6844 45.1753 66.9781 47.3948L67.125 49.9406C67.7451 50.2344 68.2266 50.675 68.5693 51.2625C68.912 51.85 69.0833 52.4701 69.0833 53.1229V57.6271C69.0833 58.2799 68.912 58.9 68.5693 59.4875C68.2266 60.075 67.7451 60.5156 67.125 60.8094V63.2083C67.125 64.2854 66.7415 65.2075 65.9745 65.9745C65.2075 66.7415 64.2854 67.125 63.2083 67.125H47.5417ZM43.625 53.4167C43.0701 53.4167 42.605 53.229 42.2297 52.8536C41.8543 52.4783 41.6667 52.0132 41.6667 51.4583C41.6667 50.9035 41.8543 50.4384 42.2297 50.063C42.605 49.6877 43.0701 49.5 43.625 49.5C44.1799 49.5 44.645 49.6877 45.0203 50.063C45.3957 50.4384 45.5833 50.9035 45.5833 51.4583C45.5833 52.0132 45.3957 52.4783 45.0203 52.8536C44.645 53.229 44.1799 53.4167 43.625 53.4167ZM55.375 53.4167C54.8201 53.4167 54.355 53.229 53.9797 52.8536C53.6043 52.4783 53.4167 52.0132 53.4167 51.4583C53.4167 50.9035 53.6043 50.4384 53.9797 50.063C54.355 49.6877 54.8201 49.5 55.375 49.5C55.9299 49.5 56.395 49.6877 56.7703 50.063C57.1457 50.4384 57.3333 50.9035 57.3333 51.4583C57.3333 52.0132 57.1457 52.4783 56.7703 52.8536C56.395 53.229 55.9299 53.4167 55.375 53.4167ZM37.799 50.3813C37.5705 46.9215 38.6149 43.9514 40.9323 41.4708C43.2497 38.9903 46.1382 37.75 49.5979 37.75C52.5028 37.75 55.0568 38.672 57.2599 40.5161C59.463 42.3602 60.7931 44.7184 61.25 47.5906C58.2799 47.558 55.5464 46.7583 53.0495 45.1917C50.5526 43.625 48.6351 41.5035 47.2969 38.8271C46.7746 41.4382 45.6731 43.7637 43.9922 45.8036C42.3113 47.8436 40.2469 49.3694 37.799 50.3813Z" fill="white"/>
</svg>
