<svg width="100" height="100" viewBox="0 0 100 100" fill="none" xmlns="http://www.w3.org/2000/svg">
<rect width="100" height="100" rx="10" fill="#7A7A7A"/>
<path d="M37.5 64.5833V66.6667C37.5 67.257 37.3003 67.7517 36.901 68.1511C36.5017 68.5504 36.0069 68.75 35.4167 68.75H33.3333C32.7431 68.75 32.2483 68.5504 31.849 68.1511C31.4497 67.7517 31.25 67.257 31.25 66.6667V50L35.625 37.5C35.8333 36.875 36.2066 36.3715 36.7448 35.9896C37.283 35.6077 37.8819 35.4167 38.5417 35.4167H61.4583C62.1181 35.4167 62.717 35.6077 63.2552 35.9896C63.7934 36.3715 64.1667 36.875 64.375 37.5L68.75 50V66.6667C68.75 67.257 68.5503 67.7517 68.151 68.1511C67.7517 68.5504 67.2569 68.75 66.6667 68.75H64.5833C63.9931 68.75 63.4983 68.5504 63.099 68.1511C62.6997 67.7517 62.5 67.257 62.5 66.6667V64.5833H37.5ZM37.0833 45.8333H62.9167L60.7292 39.5834H39.2708L37.0833 45.8333ZM40.625 58.3333C41.4931 58.3333 42.2309 58.0295 42.8385 57.4219C43.4462 56.8142 43.75 56.0764 43.75 55.2083C43.75 54.3403 43.4462 53.6024 42.8385 52.9948C42.2309 52.3872 41.4931 52.0833 40.625 52.0833C39.7569 52.0833 39.0191 52.3872 38.4115 52.9948C37.8038 53.6024 37.5 54.3403 37.5 55.2083C37.5 56.0764 37.8038 56.8142 38.4115 57.4219C39.0191 58.0295 39.7569 58.3333 40.625 58.3333ZM59.375 58.3333C60.2431 58.3333 60.9809 58.0295 61.5885 57.4219C62.1962 56.8142 62.5 56.0764 62.5 55.2083C62.5 54.3403 62.1962 53.6024 61.5885 52.9948C60.9809 52.3872 60.2431 52.0833 59.375 52.0833C58.5069 52.0833 57.7691 52.3872 57.1615 52.9948C56.5538 53.6024 56.25 54.3403 56.25 55.2083C56.25 56.0764 56.5538 56.8142 57.1615 57.4219C57.7691 58.0295 58.5069 58.3333 59.375 58.3333ZM35.4167 60.4167H64.5833V50H35.4167V60.4167Z" fill="white"/>
</svg>
