<svg width="44" height="44" viewBox="0 0 44 44" fill="none" xmlns="http://www.w3.org/2000/svg">
<rect x="0.5" y="0.5" width="43" height="43" rx="21.5" stroke="white"/>
<mask id="mask0_1_1060" style="mask-type:alpha" maskUnits="userSpaceOnUse" x="13" y="13" width="18" height="18">
<path d="M18.2785 13.1328C17.3327 13.1775 16.6867 13.329 16.1222 13.5502C15.5379 13.778 15.0425 14.0833 14.5498 14.5781C14.0564 15.0731 13.7534 15.5694 13.5274 16.1543C13.3085 16.7202 13.1602 17.3665 13.1184 18.3129C13.0769 19.261 13.0674 19.5634 13.072 21.9772C13.0767 24.3906 13.0873 24.6936 13.1325 25.642C13.1777 26.5875 13.3287 27.2332 13.5498 27.798C13.7779 28.3824 14.0829 28.8775 14.578 29.3705C15.0728 29.8636 15.5693 30.1663 16.1545 30.3927C16.7199 30.6113 17.3664 30.7601 18.3125 30.8016C19.2606 30.8434 19.5633 30.8526 21.9764 30.848C24.3907 30.8434 24.6934 30.8327 25.6415 30.7878C26.5873 30.7426 27.2327 30.5911 27.7978 30.3705C28.3821 30.1418 28.8775 29.8374 29.3703 29.3423C29.863 28.8475 30.166 28.351 30.3921 27.7658C30.611 27.2004 30.7599 26.5538 30.8011 25.6083C30.8425 24.6596 30.8523 24.3567 30.8477 21.9432C30.8431 19.5294 30.8322 19.227 30.7872 18.2792C30.7423 17.3328 30.5908 16.6874 30.3699 16.1223C30.1415 15.538 29.8368 15.0432 29.3421 14.5498C28.8473 14.0571 28.3508 13.7535 27.7655 13.528C27.1999 13.3091 26.5536 13.1599 25.6075 13.119C24.6594 13.077 24.3568 13.0678 21.9427 13.0724C19.5293 13.077 19.2266 13.0873 18.2785 13.1328ZM18.3822 29.2018C17.5156 29.164 17.045 29.02 16.7314 28.8994C16.3161 28.7386 16.0197 28.546 15.7078 28.2364C15.3965 27.9256 15.2032 27.6301 15.0411 27.2157C14.9193 26.902 14.7727 26.432 14.7321 25.5654C14.688 24.6285 14.6779 24.3474 14.6736 21.974C14.669 19.6011 14.6776 19.32 14.7185 18.3823C14.7557 17.5163 14.9006 17.0451 15.0209 16.7317C15.1816 16.3159 15.3737 16.0201 15.6839 15.7082C15.9947 15.3963 16.2901 15.2036 16.7049 15.0414C17.0182 14.919 17.4882 14.7736 18.3545 14.7324C19.292 14.6881 19.5728 14.6786 21.9456 14.674C24.319 14.6693 24.6001 14.6777 25.5379 14.7189C26.4039 14.7566 26.875 14.9 27.1881 15.0213C27.6037 15.182 27.9 15.3735 28.2117 15.6843C28.5233 15.995 28.7165 16.2899 28.8787 16.7055C29.0011 17.018 29.1465 17.4886 29.1874 18.3547C29.232 19.2921 29.2421 19.5732 29.2464 21.9461C29.251 24.3195 29.2424 24.6006 29.2012 25.5378C29.1635 26.4044 29.0198 26.8753 28.8988 27.1892C28.7381 27.6042 28.546 27.9005 28.2355 28.2125C27.9251 28.5232 27.6296 28.717 27.2146 28.8792C26.9018 29.0013 26.4312 29.147 25.5655 29.1882C24.6281 29.2323 24.3473 29.2424 21.9736 29.2467C19.6007 29.2513 19.3199 29.2424 18.3822 29.2018ZM25.6286 17.2087C25.6297 17.7974 26.1084 18.274 26.6971 18.2729C27.286 18.2717 27.7627 17.7933 27.7618 17.2046C27.7606 16.616 27.282 16.139 26.693 16.1402C26.1041 16.1413 25.6274 16.62 25.6286 17.2087ZM17.3958 21.9688C17.4007 24.4897 19.4481 26.5288 21.9684 26.5239C24.489 26.519 26.5291 24.4721 26.5243 21.9513C26.5194 19.4312 24.4717 17.391 21.9508 17.3959C19.4305 17.4008 17.3909 19.4485 17.3958 21.9688ZM18.9968 21.9656C18.9939 20.3295 20.3181 19.0004 21.954 18.9975C23.5901 18.9943 24.9195 20.318 24.9227 21.9544C24.9259 23.5909 23.6016 24.9197 21.9652 24.9229C20.3294 24.926 18.9999 23.6021 18.9968 21.9656Z" fill="#000008"/>
</mask>
<g mask="url(#mask0_1_1060)">
<rect x="12.3267" y="12.3269" width="19.3556" height="19.3556" fill="white"/>
<g filter="url(#filter0_f_1_1060)">
<ellipse cx="15.9485" cy="11.5905" rx="11.1667" ry="7.81667" transform="rotate(-14.9317 15.9485 11.5905)" fill="white"/>
</g>
<g filter="url(#filter1_f_1_1060)">
<ellipse cx="31.0619" cy="12.4511" rx="10.5463" ry="10.5463" fill="white"/>
</g>
<g filter="url(#filter2_f_1_1060)">
<ellipse cx="16.048" cy="29.6973" rx="5.95555" ry="5.95556" fill="white"/>
</g>
</g>
<defs>
<filter id="filter0_f_1_1060" x="-31.8795" y="-33.3439" width="95.6559" height="89.8687" filterUnits="userSpaceOnUse" color-interpolation-filters="sRGB">
<feFlood flood-opacity="0" result="BackgroundImageFix"/>
<feBlend mode="normal" in="SourceGraphic" in2="BackgroundImageFix" result="shape"/>
<feGaussianBlur stdDeviation="18.425" result="effect1_foregroundBlur_1_1060"/>
</filter>
<filter id="filter1_f_1_1060" x="-24.151" y="-42.7619" width="110.426" height="110.426" filterUnits="userSpaceOnUse" color-interpolation-filters="sRGB">
<feFlood flood-opacity="0" result="BackgroundImageFix"/>
<feBlend mode="normal" in="SourceGraphic" in2="BackgroundImageFix" result="shape"/>
<feGaussianBlur stdDeviation="22.3333" result="effect1_foregroundBlur_1_1060"/>
</filter>
<filter id="filter2_f_1_1060" x="-25.6409" y="-11.9916" width="83.3778" height="83.3778" filterUnits="userSpaceOnUse" color-interpolation-filters="sRGB">
<feFlood flood-opacity="0" result="BackgroundImageFix"/>
<feBlend mode="normal" in="SourceGraphic" in2="BackgroundImageFix" result="shape"/>
<feGaussianBlur stdDeviation="17.8667" result="effect1_foregroundBlur_1_1060"/>
</filter>
</defs>
</svg>
