<svg width="44" height="44" viewBox="0 0 44 44" fill="none" xmlns="http://www.w3.org/2000/svg">
<rect x="0.5" y="0.5" width="43" height="43" rx="21.5" stroke="white"/>
<path d="M30.8889 22.1252C30.8889 17.1468 26.9092 13.1111 22 13.1111C17.0908 13.1111 13.1111 17.1468 13.1111 22.1252C13.1111 26.6243 16.3616 30.3535 20.6111 31.0297V24.7308H18.3541V22.1252H20.6111V20.1393C20.6111 17.8801 21.9382 16.6322 23.9685 16.6322C24.9411 16.6322 25.9583 16.8083 25.9583 16.8083V19.0266H24.8375C23.7333 19.0266 23.3889 19.7215 23.3889 20.4343V22.1252H25.8541L25.46 24.7308H23.3889V31.0297C27.6383 30.3535 30.8889 26.6245 30.8889 22.1252Z" fill="white"/>
</svg>
