<svg width="44" height="44" viewBox="0 0 44 44" fill="none" xmlns="http://www.w3.org/2000/svg">
<rect x="0.5" y="0.5" width="43" height="43" rx="21.5" stroke="white"/>
<path d="M29.854 27.3103C29.583 27.3129 29.3241 27.4227 29.1338 27.6157C28.9436 27.8087 28.8375 28.0692 28.8388 28.3402C28.8401 28.6112 28.9487 28.8707 29.1408 29.0618C29.3329 29.253 29.5928 29.3603 29.8638 29.3603C30.1348 29.3603 30.3948 29.253 30.5869 29.0618C30.779 28.8707 30.8875 28.6112 30.8889 28.3402C30.8902 28.0692 30.7841 27.8087 30.5939 27.6157C30.4036 27.4227 30.1447 27.3129 29.8737 27.3103H29.854ZM29.854 29.2429C29.6762 29.2459 29.5016 29.1961 29.3522 29.0998C29.2027 29.0035 29.0852 28.8651 29.0145 28.702C28.9437 28.5389 28.9229 28.3585 28.9547 28.1836C28.9865 28.0087 29.0694 27.8471 29.193 27.7194C29.3166 27.5916 29.4753 27.5033 29.649 27.4658C29.8228 27.4282 30.0038 27.443 30.1691 27.5083C30.3345 27.5735 30.4767 27.6864 30.5779 27.8325C30.6791 27.9787 30.7347 28.1515 30.7377 28.3293V28.3444C30.7427 28.5775 30.6549 28.8031 30.4935 28.9716C30.3322 29.14 30.1106 29.2374 29.8774 29.2425H29.8542M25.9193 27.0303H23.692V23.5422C23.692 22.7104 23.6771 21.6397 22.5335 21.6397C21.3735 21.6397 21.196 22.5459 21.196 23.4816V27.03H18.9687V19.8571H21.1069V20.8374H21.1368C21.3508 20.4715 21.66 20.1705 22.0315 19.9665C22.4031 19.7625 22.823 19.663 23.2465 19.6787C25.504 19.6787 25.9202 21.1636 25.9202 23.0953L25.9193 27.0303ZM16.4555 18.8767C16.1999 18.8767 15.95 18.8009 15.7374 18.659C15.5248 18.517 15.3591 18.3151 15.2612 18.079C15.1634 17.8428 15.1377 17.5829 15.1876 17.3322C15.2374 17.0814 15.3604 16.8511 15.5412 16.6703C15.7219 16.4895 15.9522 16.3664 16.2029 16.3165C16.4536 16.2665 16.7135 16.2921 16.9497 16.3899C17.1859 16.4877 17.3878 16.6533 17.5299 16.8658C17.6719 17.0784 17.7478 17.3282 17.7478 17.5839C17.7479 17.7536 17.7145 17.9217 17.6495 18.0785C17.5846 18.2354 17.4894 18.3779 17.3694 18.4979C17.2494 18.618 17.107 18.7132 16.9501 18.7782C16.7933 18.8432 16.6253 18.8766 16.4555 18.8767ZM17.5692 27.0303H15.3396V19.8571H17.5692V27.0303ZM27.0297 14.2232H14.2203C13.9296 14.2199 13.6494 14.3322 13.4415 14.5354C13.2335 14.7385 13.1146 15.016 13.1111 15.3067V28.1692C13.1145 28.4601 13.2333 28.7377 13.4413 28.9411C13.6492 29.1445 13.9295 29.257 14.2203 29.2539H27.0297C27.3212 29.2575 27.6021 29.1453 27.811 28.942C28.0198 28.7386 28.1393 28.4607 28.1433 28.1692V15.3058C28.1392 15.0144 28.0196 14.7367 27.8108 14.5335C27.6019 14.3304 27.321 14.2184 27.0297 14.2223M30.0166 28.4003C30.0548 28.4007 30.0926 28.3932 30.1277 28.3784C30.1629 28.3635 30.1946 28.3416 30.2209 28.314C30.2472 28.2864 30.2676 28.2537 30.2807 28.2179C30.2939 28.1821 30.2995 28.1439 30.2974 28.1059C30.2974 27.897 30.1714 27.7973 29.9129 27.7973H29.4953V28.8905H29.6524V28.414H29.8454L29.8498 28.4198L30.1493 28.8905H30.3173L29.995 28.4033L30.0166 28.4003ZM29.8349 28.2908H29.6528V27.9212H29.8837C30.0029 27.9212 30.1389 27.9407 30.1389 28.0968C30.1389 28.2764 30.0013 28.2908 29.834 28.2908" fill="white"/>
</svg>
