<svg width="100" height="100" viewBox="0 0 100 100" fill="none" xmlns="http://www.w3.org/2000/svg">
<rect width="100" height="100" rx="10" fill="#7A7A7A"/>
<path d="M43.45 60.2917L50.5 53.2417L57.55 60.2917L60.2917 57.55L53.2417 50.5L60.2917 43.45L57.55 40.7083L50.5 47.7583L43.45 40.7083L40.7083 43.45L47.7583 50.5L40.7083 57.55L43.45 60.2917ZM50.5 70.0833C47.791 70.0833 45.2451 69.5693 42.8625 68.5412C40.4799 67.513 38.4073 66.1177 36.6448 64.3552C34.8823 62.5927 33.487 60.5201 32.4589 58.1375C31.4307 55.7549 30.9167 53.209 30.9167 50.5C30.9167 47.791 31.4307 45.2451 32.4589 42.8625C33.487 40.4799 34.8823 38.4073 36.6448 36.6448C38.4073 34.8823 40.4799 33.487 42.8625 32.4589C45.2451 31.4307 47.791 30.9167 50.5 30.9167C53.209 30.9167 55.7549 31.4307 58.1375 32.4589C60.5201 33.487 62.5927 34.8823 64.3552 36.6448C66.1177 38.4073 67.513 40.4799 68.5411 42.8625C69.5693 45.2451 70.0833 47.791 70.0833 50.5C70.0833 53.209 69.5693 55.7549 68.5411 58.1375C67.513 60.5201 66.1177 62.5927 64.3552 64.3552C62.5927 66.1177 60.5201 67.513 58.1375 68.5412C55.7549 69.5693 53.209 70.0833 50.5 70.0833ZM50.5 66.1667C54.8736 66.1667 58.5781 64.649 61.6135 61.6135C64.649 58.5781 66.1667 54.8736 66.1667 50.5C66.1667 46.1264 64.649 42.4219 61.6135 39.3865C58.5781 36.351 54.8736 34.8333 50.5 34.8333C46.1264 34.8333 42.4219 36.351 39.3865 39.3865C36.351 42.4219 34.8333 46.1264 34.8333 50.5C34.8333 54.8736 36.351 58.5781 39.3865 61.6135C42.4219 64.649 46.1264 66.1667 50.5 66.1667Z" fill="white"/>
</svg>
