<svg width="100" height="100" viewBox="0 0 100 100" fill="none" xmlns="http://www.w3.org/2000/svg">
<rect width="100" height="100" rx="10" fill="#7A7A7A"/>
<path d="M50.5 70.0833C47.791 70.0833 45.2451 69.5693 42.8625 68.5411C40.4799 67.513 38.4073 66.1177 36.6448 64.3552C34.8823 62.5927 33.487 60.5201 32.4589 58.1375C31.4307 55.7549 30.9167 53.209 30.9167 50.5C30.9167 47.791 31.4307 45.2451 32.4589 42.8625C33.487 40.4799 34.8823 38.4073 36.6448 36.6448C38.4073 34.8823 40.4799 33.487 42.8625 32.4589C45.2451 31.4307 47.791 30.9167 50.5 30.9167H52.4583V47.1219C53.0458 47.4809 53.5191 47.946 53.8781 48.5172C54.2372 49.0884 54.4167 49.7493 54.4167 50.5C54.4167 51.5771 54.0332 52.4991 53.2661 53.2661C52.4991 54.0332 51.5771 54.4167 50.5 54.4167C49.4229 54.4167 48.5009 54.0332 47.7339 53.2661C46.9668 52.4991 46.5833 51.5771 46.5833 50.5C46.5833 49.7493 46.7628 49.0802 47.1219 48.4927C47.4809 47.9052 47.9542 47.4483 48.5417 47.1219V42.9115C46.8444 43.3684 45.441 44.2904 44.3312 45.6776C43.2215 47.0648 42.6667 48.6722 42.6667 50.5C42.6667 52.6542 43.4337 54.4983 44.9677 56.0323C46.5017 57.5663 48.3458 58.3333 50.5 58.3333C52.6542 58.3333 54.4983 57.5663 56.0323 56.0323C57.5663 54.4983 58.3333 52.6542 58.3333 50.5C58.3333 49.325 58.0967 48.2398 57.6234 47.2443C57.1502 46.2488 56.5056 45.3757 55.6896 44.625L58.4802 41.8344C59.6226 42.9115 60.5365 44.1925 61.2219 45.6776C61.9073 47.1627 62.25 48.7701 62.25 50.5C62.25 53.7639 61.1076 56.5382 58.8229 58.8229C56.5382 61.1076 53.7639 62.25 50.5 62.25C47.2361 62.25 44.4618 61.1076 42.1771 58.8229C39.8924 56.5382 38.75 53.7639 38.75 50.5C38.75 47.5625 39.6802 45.0085 41.5406 42.838C43.401 40.6675 45.7347 39.3538 48.5417 38.8969V34.9312C44.6576 35.4208 41.4019 37.1344 38.7745 40.0719C36.147 43.0094 34.8333 46.4854 34.8333 50.5C34.8333 54.8736 36.351 58.5781 39.3865 61.6135C42.4219 64.649 46.1264 66.1667 50.5 66.1667C54.8736 66.1667 58.5781 64.649 61.6135 61.6135C64.649 58.5781 66.1667 54.8736 66.1667 50.5C66.1667 48.2479 65.726 46.1427 64.8448 44.1844C63.9635 42.226 62.7559 40.5288 61.2219 39.0927L64.0125 36.3021C65.8729 38.0972 67.3498 40.2106 68.4432 42.6422C69.5366 45.0738 70.0833 47.6931 70.0833 50.5C70.0833 53.209 69.5693 55.7549 68.5411 58.1375C67.513 60.5201 66.1177 62.5927 64.3552 64.3552C62.5927 66.1177 60.5201 67.513 58.1375 68.5411C55.7549 69.5693 53.209 70.0833 50.5 70.0833Z" fill="white"/>
</svg>
