<svg width="100" height="100" viewBox="0 0 100 100" fill="none" xmlns="http://www.w3.org/2000/svg">
<rect width="100" height="100" rx="10" fill="#B8001F"/>
<path d="M37.1667 68.3334C36.1583 68.3334 35.2951 67.9743 34.5771 67.2563C33.859 66.5382 33.5 65.675 33.5 64.6667V39C33.5 37.9917 33.859 37.1285 34.5771 36.4104C35.2951 35.6924 36.1583 35.3334 37.1667 35.3334H39V31.6667H42.6667V35.3334H57.3333V31.6667H61V35.3334H62.8333C63.8417 35.3334 64.7049 35.6924 65.4229 36.4104C66.141 37.1285 66.5 37.9917 66.5 39V64.6667C66.5 65.675 66.141 66.5382 65.4229 67.2563C64.7049 67.9743 63.8417 68.3334 62.8333 68.3334H37.1667ZM37.1667 64.6667H62.8333V46.3334H37.1667V64.6667ZM37.1667 42.6667H62.8333V39H37.1667V42.6667ZM50 53.6667C49.4806 53.6667 49.0451 53.491 48.6938 53.1396C48.3424 52.7882 48.1667 52.3528 48.1667 51.8334C48.1667 51.3139 48.3424 50.8785 48.6938 50.5271C49.0451 50.1757 49.4806 50 50 50C50.5194 50 50.9549 50.1757 51.3062 50.5271C51.6576 50.8785 51.8333 51.3139 51.8333 51.8334C51.8333 52.3528 51.6576 52.7882 51.3062 53.1396C50.9549 53.491 50.5194 53.6667 50 53.6667ZM42.6667 53.6667C42.1472 53.6667 41.7118 53.491 41.3604 53.1396C41.009 52.7882 40.8333 52.3528 40.8333 51.8334C40.8333 51.3139 41.009 50.8785 41.3604 50.5271C41.7118 50.1757 42.1472 50 42.6667 50C43.1861 50 43.6215 50.1757 43.9729 50.5271C44.3243 50.8785 44.5 51.3139 44.5 51.8334C44.5 52.3528 44.3243 52.7882 43.9729 53.1396C43.6215 53.491 43.1861 53.6667 42.6667 53.6667ZM57.3333 53.6667C56.8139 53.6667 56.3785 53.491 56.0271 53.1396C55.6757 52.7882 55.5 52.3528 55.5 51.8334C55.5 51.3139 55.6757 50.8785 56.0271 50.5271C56.3785 50.1757 56.8139 50 57.3333 50C57.8528 50 58.2882 50.1757 58.6396 50.5271C58.991 50.8785 59.1667 51.3139 59.1667 51.8334C59.1667 52.3528 58.991 52.7882 58.6396 53.1396C58.2882 53.491 57.8528 53.6667 57.3333 53.6667ZM50 61C49.4806 61 49.0451 60.8243 48.6938 60.4729C48.3424 60.1215 48.1667 59.6861 48.1667 59.1667C48.1667 58.6472 48.3424 58.2118 48.6938 57.8604C49.0451 57.509 49.4806 57.3334 50 57.3334C50.5194 57.3334 50.9549 57.509 51.3062 57.8604C51.6576 58.2118 51.8333 58.6472 51.8333 59.1667C51.8333 59.6861 51.6576 60.1215 51.3062 60.4729C50.9549 60.8243 50.5194 61 50 61ZM42.6667 61C42.1472 61 41.7118 60.8243 41.3604 60.4729C41.009 60.1215 40.8333 59.6861 40.8333 59.1667C40.8333 58.6472 41.009 58.2118 41.3604 57.8604C41.7118 57.509 42.1472 57.3334 42.6667 57.3334C43.1861 57.3334 43.6215 57.509 43.9729 57.8604C44.3243 58.2118 44.5 58.6472 44.5 59.1667C44.5 59.6861 44.3243 60.1215 43.9729 60.4729C43.6215 60.8243 43.1861 61 42.6667 61ZM57.3333 61C56.8139 61 56.3785 60.8243 56.0271 60.4729C55.6757 60.1215 55.5 59.6861 55.5 59.1667C55.5 58.6472 55.6757 58.2118 56.0271 57.8604C56.3785 57.509 56.8139 57.3334 57.3333 57.3334C57.8528 57.3334 58.2882 57.509 58.6396 57.8604C58.991 58.2118 59.1667 58.6472 59.1667 59.1667C59.1667 59.6861 58.991 60.1215 58.6396 60.4729C58.2882 60.8243 57.8528 61 57.3333 61Z" fill="white"/>
</svg>
